<?xml version="1.0" encoding="UTF-8"?><!DOCTYPE svg PUBLIC "-//W3C//DTD SVG 1.1//EN" "http://www.w3.org/Graphics/SVG/1.1/DTD/svg11.dtd">
<svg
    xmlns="http://www.w3.org/2000/svg"
    xmlns:xlink="http://www.w3.org/1999/xlink"
    version="1.1"
    id="Layer_1"
    x="0px"
    y="0px"
    width="64px"
    height="64px"
    viewBox="0 0 64 64"
    xml:space="preserve"
>
    <path
        d="M45 0c-8.271 0-15 6.729-15 15 0 1.676.288 3.282.798 4.789L4.586 46l4 4-4 4 10 10h5.828L42 42.414 45.586 46l-6.293 6.293 1.414 1.414L48.414 46 42 39.586 19.586 62h-4.172l-8-8L10 51.414l4 4 26.212-26.211c1.506.509 3.112.797 4.788.797 8.271 0 15-6.729 15-15S53.271 0 45 0zM7.414 46L24 29.414 30.586 36 14 52.586 7.414 46zM32 34.586L25.414 28l6.223-6.222a15.074 15.074 0 0 0 6.586 6.586L32 34.586zM45 28c-7.168 0-13-5.832-13-13S37.832 2 45 2s13 5.832 13 13-5.832 13-13 13z"
    />
</svg>
