<svg id="Lager_1" data-name="Lager 1" xmlns="http://www.w3.org/2000/svg" viewBox="0 0 1538.88 1384.52"><defs><style>.cls-1{fill:#fff;}</style></defs><path class="cls-1" d="M1362.72,815.25c-3.51-5.65-7.26-10.68-10.15-16.12-17.09-25-20.22-38.14-11.32-52.3,4.36-7,11-12.53,17.24-19.44,2.77,7.94,4.88,14,7.13,20.4h11.17c16.58-30.93-7.06-49-34.32-42.93-13.4,3-25.58,9.38-31.64,20.94-6.59,12.54-12.58,27.19-12.73,41-.43,37.78-25.91,62.52-42.55,96.05-2.11-6.7-3.44-8.93-3.42-11.17.15-56.7,0-113.36,16-168.67,6.32-21.76,10.7-44.1,8.92-67.1-.65-8.12-.52-16.45-11.58-20.66-23.2,7.32-32.65,26.27-36.19,48.67-3,19.16-3.91,38.66-6,58-.64,6-2.1,11.94-3.26,18.32-8.08-2.68-14-5.39-20.25-6.57-16.78-3.2-34.89-1.5-45.73,10.67-16.46,18.48-29.82,40-42.53,61.39-13.55,22.77-24.79,46.89-37.27,70.3-.75,1.42-3.56,1.74-8,3.69,1.25-18.83,2.3-35.69,3.48-52.55.78-11.32,1.92-22.6,2.47-33.9.39-8.1-3.3-14-11.72-17.16-6.49.45-13.49,1-21.14,1.5-.56-11.89,0-22.42-1.76-32.54-2.25-12.8-12.56-20.72-23.78-20.49s-19,8.4-19.61,23.42c-.47,11,1.49,22.16,2.52,35.39-7.28,3.8-16,8.31-25.09,13-2.69-9.71-4.06-16.88-6.66-23.61-2.92-7.47-6-15.29-10.76-21.58-5.69-7.41-12.29-15.34-20.34-19.46-15.38-7.86-65,3.2-75.84,16.39-14.87,18.13-28,37.28-35.16,60.24-4,13-9.32,26.21-16.91,37.42-8.78,13-18,26.83-33.91,33-14.71,5.72-28.76,2.56-34.5-8.78-15.91-31.55-9.88-80,11.45-103.25,5.07-5.52,10.85-9.6,20.21-4.72v33.72c7.93,8.59,15,6.66,21.29,2.12,13.72-9.92,14.56-24.53,12.37-39.45-2-13.15-9.13-22.08-23.07-24.79C761.17,710,742,712.18,729.29,725c-17.35,17.55-34.66,36.54-42.16,61.26-7.11,23.45-18.51,44.22-35.46,62.16-19.12,20.23-44.37,16.43-55.87-8.85-2.21-4.85-3.93-9.94-6-15.29,9.17-2.49,17-4.49,24.76-6.75,27.67-8.09,44.49-27.19,49.66-54.47,6.43-33.87-11.08-54-45.7-50.09-17.7,2-30.72,10-42.14,24.62-28.12,36-31.19,75.6-19.74,117,6.87,24.83,28.22,37.54,54.21,36.6,32.39-1.18,54.43-18.3,69.55-45.73,2-3.63,4.81-6.77,8.91-12.42,1,8,1,12.91,2.28,17.51,7.62,27.64,26.82,41.39,55.82,40.79,32-.65,52.58-18.75,68.56-44,2.86-4.51,5.31-9.3,8.85-15.57,3.16,10.12,4.92,18.06,8.1,25.41,6,13.79,15.14,25,29.64,30.76,35.48,14.22,82.2-5.78,95.56-41.44,5.37-14.26,9-29.19,12.43-40.61l43.26-33,19.42,7.43c-7.48,34.31-6.51,67.3-4.62,99.34,23.05,16.39,38.53,16.22,54.77-1.71,8.57-9.48,14.84-21,22-31.81,2.8-4.21,5.07-8.79,8.77-15.32,7.45,42.16,20.7,58.85,46,60.36,26.23,1.56,41.46-13.36,52.65-53.64.84,16.29,1.5,29.77,2.12,42,22.19,16.25,36.88,16.32,52.71-1,8.62-9.39,15.17-20.84,21.57-31.94,7.09-12.29,12.95-25.28,20-39.37,6.64,7,11.53,12.2,15,15.85-8.33,14.46-17,27.11-23.24,40.92-7.09,15.85,2.39,29.21,19.81,30.43,27.75,2,50.86-19.22,50.17-47.27-.17-7.21-1.54-14.4-3-21.58A77.48,77.48,0,0,0,1362.72,815.25Zm-737.19-75c9.49,10.65,6.32,22.25,1.18,33.4-9.51,20.64-13.59,23.43-35,26.89C592.52,762.4,601.75,745.56,625.53,740.3Zm292.15,113c-11.06,17.84-37.58,14.54-44.95-5.07-8.74-23.31-14.2-47.49-6.74-76.85,18,31.78,14.79,35.89,64.22,44.22C932.81,830.29,924.43,842.41,917.68,853.3ZM901.6,762.42c-3.83-10-1.36-16.95,8.93-27.67C931,744.18,929.69,763.3,933,782.69,916.76,781.9,906.69,775.65,901.6,762.42Zm297.22,65.21c-10.67,23.75-11,23.62-24.18,33.91-3.25-4.06-7.93-7.66-9.54-12.33a132.13,132.13,0,0,1-4.83-71.61,44.53,44.53,0,0,1,3.07-9.17c13.1-29.12,27.45-35.35,54.88-18.15C1218.92,778.36,1209.73,803.27,1198.82,827.63Zm130.63,37.74,19.34-30.07C1350.93,863.22,1329.45,865.37,1329.45,865.37Z" transform="translate(-82.15 -169.44)"/><path class="cls-1" d="M1136.37,1122.2l-7.63-6.71c-18.16-6.32-36.42-12.34-53.4-5.21l.48.67c-19.77,37.09-17.18,55.16,10,71.43,2.75-2.84,5.52-5.67,9.71-10,2.5,49.87,4.82,97,7.08,142.41-2.51,3.23-3.32,5.13-4.84,6.13-32,21.17-64,42.39-96.37,63.21-4.66,3-10.71,4.34-16.27,6-6.29,1.95-13.79,2.12-19,5.41-21.87,13.72-43.09,28.32-66.64,44,7,9.19,13.49,17.78,21.09,27.8,20.59-12,39.71-21.71,56.92-33.75,9.87-6.9,16.47-17.66,24.84-26.43,2.59-2.67,6.13-4.54,9.35-6.64,24.38-15.56,48.9-31,73.13-46.7,12.86-8.33,25.21-17.3,37.25-25.59-2.27-49.65-4.45-97.78-6.56-144.7C1148.12,1167.46,1149.62,1161.46,1136.37,1122.2Z" transform="translate(-82.15 -169.44)"/><path class="cls-1" d="M1095,1311.6c-15.74,10.91-28.2,19.75-40.9,28.29-15.95,10.72-32,21.34-48.24,31.68-4.79,3-10.65,7.73-15.61,6.94-16.86-2.66-26.24,8.06-37.37,14.71-21.49,12.83-41.7,27.44-64.21,42.49,7.69,14.91,15.61,30.24,23.51,45.55,30-11.49,80-49.38,102.24-69.32,20.26-18.19,45.25-31.71,73.78-51.11-1.94,13.31-2.16,20.39-4.06,26.92-14.13,48.67-41.56,88.3-83.12,119-38.7,28.58-82,46.8-133.59,47.22-95.64.78-191.92-58.39-228.9-144.92-23.76-55.58-25.76-112.47-6.51-167.15,16.75-47.58,46.4-86,87.59-116.19,1.55-1.14,3.11-2.28,4.75-3.3,135.2-83.92,294.86-12.7,351.36,110.61C1086.68,1257,1088.49,1284,1095,1311.6ZM678.92,1428.26l15.48,8.43,18.9-27.51c22.66-.38,32.64-16.87,46.44-29.08l-8.37-28.19c-25.42-7.59-44.42,1-62.73,11.87-20.25-5.25-23.65-4.38-32.6,8.35l-18.38-9c9.36,31.68,10.86,61.8,43.29,86.07C680,1439,679.44,1433.63,678.92,1428.26Zm347.69-148.5c7.46,11.76,17.32,8.59,28.79,5.87,8-25.38-4.87-46.9-22-71.63-8.63,11.07-24.42,11.25-26.52,26-23.32-3.67-35.53,11.34-51.1,22.62,1.52,10,2.92,19.16,4.53,29.72,21.3,4.91,39.8,2.26,57.64.45Zm-242.06-3.19c-33.28,62.19,9.43,112.22,53.51,123.12,42.59,10.54,74.74-4.35,94.5-44.28,10.84-21.91,14.42-47-.93-72.21-17.42-28.58-43.41-44.21-76.5-46.13C819.57,1235,797.82,1254,784.55,1276.57Z" transform="translate(-82.15 -169.44)"/><path class="cls-1" d="M872.58,385.15c-13.36,7.16-16.77,18.35-20.76,29.2-9.28,25.19-24.13,47.19-40.11,69.2-1.15-30.85-5.44-61.11,3.19-91.3,3.41-11.94,3.92-24.83,4.5-37.35.21-4.72-3.15-9.58-5-14.71-14.4,2-24.69,6.6-30.41,18.55-.11.21-.92.08-1.39.1-20.94-21.1-52.46-25.11-69.1-5.7-14.72,17.16-26.14,37.36-37.41,57.11-12.84,22.51-23.76,46.1-36,69-1.45,2.72-5.72,3.95-10.54,7.06-2.93-39.6,1.18-76.31,4.81-113.85,20.63-5.08,39.65-12,51-32.3-6.94-8.83-14.76-7-23.27-3.26-7.54,3.29-15.38,5.87-25.59,9.71.86-18,1.63-32.87,2.28-47.76.65-15.27,8.1-31.14-3.43-45.43-13.12-3.55-20.24,4.29-25,13.59-3.49,6.84-4.7,15-5.92,22.77-2.41,15.47-4.13,31.06-6.12,46.53-8.62,1.55-16,2.89-25.55,4.62,1,7.35-.14,14.58,2.91,18.9,4.7,6.63,12.25,11.26,19.23,17.29-1.18,20.67-12.53,38.37-20.62,56.88-11.56,26.43-25.91,44.38-36.09,49.4,0-27.33-.4-54.15.29-81,.17-6.79,3.75-13.51,5.87-20.24,8.09-25.56,18.27-50.69,23.68-76.79,4.1-19.79,3.68-40.9,2.43-61.26-1.06-17.16-13.59-22.72-29-14.66-5.33,2.79-10.88,7.32-13.65,12.47-10.13,18.87-17.27,38.76-19,60.51-2.61,32.28-5.31,64.6-9.65,96.69-4.12,30.55-19,56.53-41.36,77.56C440.2,493.25,418,488.13,408,466.53c-2.49-5.37-4.48-11-6.84-16.76,9.25-2.5,16.91-4.38,24.47-6.64,25.89-7.71,41.14-25.52,48.14-50.9,4.63-16.78-1.36-37.77-12.67-45.2-16.2-10.63-51.51-7-64.74,7.22-32.52,34.87-38.67,76.64-29.35,121.2,5.15,24.58,27.4,40,52.68,39.81,31.8-.24,53.66-16.69,69.48-42.73,2.34-3.84,4.52-7.79,7.65-13.22,4.93,17.75-1.94,35.37,8.12,49.44,28.27,11.19,40.47,8.79,56.94-12.51,6.17-8,10.24-17.56,15.35-26.38,3.07-5.28,6.26-10.49,10.34-17.31,6.29,21.13-5.08,43.33,10.08,58.93,29.4,11,48-1,62.07-23.35,5.31-8.43,9.59-17.5,16.25-29.82,4.22,13.82,5.83,23.28,9.85,31.58C701.9,523,743.65,524,760,493.71c2.54-4.69,5.63-9.09,9.35-15,1.11,10.94,2,19.47,2.73,27,26.13,14.66,38.16,13,55.82-6.14s24.85-43.85,36.1-66.34c5.57-11.11,8-23.83,11.16-36C875.93,394.15,873.78,390.35,872.58,385.15ZM432.64,365.94c11.91,8.87,10.56,19.34,6.62,28.77-6.64,15.85-14.29,31.69-37.95,33.61C404.65,402.09,405.9,377.62,432.64,365.94Zm118.23-109.2c14.87-25.18-14.88,79-14.88,79S536,281.91,550.87,256.74ZM758.2,448.58c-6.84,12.56-7.52,29.32-23.49,37.18-2.62-1.66-6.43-2.69-7.61-5-15-29.47-19.63-59.87-2.87-90,13.9-25,28.59-25.8,50.71-4.3C776.64,408.75,768.72,429.26,758.2,448.58Z" transform="translate(-82.15 -169.44)"/><path class="cls-1" d="M1234.64,492.35c20-29.51,43.4-56.9,46-95,1.77-26.11,6.51-52,9.62-78.05,3.39-28.4,16.56-52.87,30.53-77.09,5.74-9.94,14-15.82,25.51-16.85,12.09,5.43,12.73,16.58,13.7,27.1a240.92,240.92,0,0,1-6.43,83.06c-1,3.81-1.92,7.64-2.92,11.65,35.63,2.83,47.63-2.69,71,59.5,17.69-5.87,34.61-11.69,46-28.53,10.57-15.56,22.45-29.49,43.58-32.63,16.44-2.44,32.56-3.31,43.58,9.76,11.8,14,11.89,31.45,6.28,48.91-8,24.82-25.35,39.47-49.72,46.89-7,2.13-14.11,4-24.19,6.82,4.66,10.1,7.68,20.23,13.48,28.41,9.5,13.39,34.46,11.46,48.53-3a157.58,157.58,0,0,0,38.18-64.68c3.23-10.51,5.35-22.28,19.77-28.55,1.19,5.69,3.64,10.31,2.7,14.1-3.52,14.22-7.13,28.57-12.64,42.1a221.38,221.38,0,0,1-20.43,39.11c-15.2,22.83-35.45,38.73-64.59,40-31.64,1.41-54.43-15.19-60.86-45.89-2.16-10.33-1.78-21.21-2.25-31.86-.31-7.13,0-14.28,0-23.42l-29.21,12.89c-4.86,12.38-9.34,24.59-14.42,36.56-13.78,32.42-47.63,53.63-82.19,51.81-21.07-1.11-31.28-8.73-37.55-29.3-2.85-9.31-4.36-19-6.5-28.69-9.33,14.41-18,29.09-28,42.8-8.88,12.18-21.43,17.32-37,14.7-16.08-2.7-22.73-7.92-22.3-23.89,1.07-40.2,2.37-80.46,5.9-120.5,2.11-24,19.13-37.28,43.55-38.43,8.52,14.45,5.34,29.67.9,44.49C1232,421,1231.5,456.12,1234.64,492.35Zm144.62-44.62c-20.38-2.72-40.86-6.24-51.88-28-7.47,27.95-6.54,54.09,8,78.79C1366.92,490.38,1376,479.59,1379.26,447.73Zm111.84-14c30.54-7.44,43.71-31.2,33.59-60.61C1500.82,375.53,1487.26,400,1491.1,433.73ZM1359.94,376.9c-10.68,4.32-11.34,11.31-7.59,18.64,5.89,11.5,15.56,17.33,30,17.89C1380.76,396.44,1378.36,382.48,1359.94,376.9ZM1326.78,374c6.74-30.75,17.72-61,11.45-93.24C1330.23,311.39,1323,342.08,1326.78,374Z" transform="translate(-82.15 -169.44)"/><path class="cls-1" d="M487.7,799.42c13.95,35.3,26.63,78.83,39.36,111h23.43c1.82,2.52,4.09,4.26,4.38,6.28,2.67,18.75-6.69,32.88-25.09,38.45-18.72,5.68-33.56,1.53-40.31-16.48-9.86-26.3-16.18-65.37-23.69-92.52-2.78-10-4.66-20.31-7.27-31.9-21.16,2.44-41.46,4.33-61.88-13,0,17.2,1.4,30.22-.38,42.79A201.58,201.58,0,0,1,385.41,886c-4,10.69-13.52,26.93-25.57,26.27-17.24-.94-26.9-24-19.36-39.14,15.44-31.08,14.44-64.42,16.84-97.33,3.12-42.8,5.33-85.66,7.81-128.5.08-1.35-1.12-2.76-2.25-5.35C343,647.75,329,659.24,324,680.07c-1.89,7.87-2.37,16.17-5,23.75-5.53,15.94-14.82,18.11-31.77,8.36-11.09-55.32,29.28-80.35,77.88-96.37,11.48-12,12.1-23.43,38.06-24.62,2.78,7.24,5.75,3.54,9.2,12.55,5.13,0,10.78-.21,16.4,0,29.68,1.29,53.38,16.84,76.05,33.38,12.68,9.26,18.69,23.86,22,39.5,7.94,37.57,4.92,72.42-22.43,102.29C497.9,786,492.27,793.77,487.7,799.42ZM409.9,636.58c-7.85,36.51-12.21,115.37-8,133.77,11.08-2,22.25-6.33,33-5.49,11.57.9,22.76,6.61,34,10.17,31-34.33,26.79-98.8-8.84-126.87C446,637.15,428.72,635.75,409.9,636.58Z" transform="translate(-82.15 -169.44)"/><path class="cls-1" d="M191.77,516.53l-6.28,14.89c-2.3.55-4.52,1.14-6.76,1.6-10,2.07-16.77-5-22.27-10.59-8-8-16.78-13.4-26.9-18-20.86-9.5-22.09-16.06-8.41-35.6l27.41,13.8c3.07-68.63,6-134.25,9-201.27-22.81,6-30.3,24-39.19,40.09-9.89,17.9,0,37.37-2.29,55.65-16.16,13.3-26.61,11.46-31.31-6.49s-3-35.84,4.27-53.36c9.61-23.11,26.47-38.81,48.26-50,7-3.59,14.17-6.89,20.9-10.15,5.86-19.26,4.15-43.15,31.93-46.22,14.31,9,5.32,24.08,10.46,35.17,18.13,2.2,36.22,3.31,53.86,6.74,52,10.11,84,51.67,87.45,104.19,1.32,20.22.11,41.44-4.7,61.05-8.74,35.63-28.38,64.73-63.27,81-19.57,9.13-39.94,15.41-61.82,15.93C205.84,515.06,199.56,515.89,191.77,516.53Zm7.62-243c-2.37,73.75-4.7,146.05-7.09,220.5,9.79,0,16.72.37,23.59-.06,41.21-2.58,74.12-45.45,82.4-75.62,6.13-22.36,7.26-45.67.25-67.89C284.78,306.78,253.22,268.18,199.39,273.49Z" transform="translate(-82.15 -169.44)"/><path class="cls-1" d="M1069.57,503.63c17.1-2.26,25.55-11.12,32.23-21.76,30.91-49.22,45.17-103.23,45.81-161,.17-15.6.45-31.28-.88-46.79-1.64-19.09-7.76-36.71-22.41-50.44a66.92,66.92,0,0,1-11.2-13.06c-8.41-13.5-5.79-30.07,5.34-37.42,11.59-7.64,30.25-3.21,38.93,9.91,9.56,14.45,16.52,29.91,19.2,47.4,8.61,56.14,2.45,111.23-10.39,166-7.35,31.37-20.07,60.72-35.17,88.87a97.05,97.05,0,0,1-41.81,41c-29.24,14.8-61.67,5.2-75.58-24.15-8.21-17.33-12.4-36.54-18.54-55.35-9.91,5.6-12,26.8-31.22,15.24,2.33-17.45,20-23.38,28.84-41.29-.28-5.21,0-15.06-1.47-24.66-5-33.9,0-67.09,5.74-100.35,3.83-22,17-38.75,30.82-55,6.71-7.89,18.12-7.82,35.26-2.29,18.85,28.35,15,59.21,5.27,89.2-7.54,23.15-19.16,45-31.81,73.89-2.47,24.64,9.2,54.06,17.81,83.82C1056.49,492.89,1065.09,498.5,1069.57,503.63Zm-36-138.42c14.22-30.27,17-59.1,13.67-88.86C1036.32,303.63,1033.06,332.12,1033.62,365.21Z" transform="translate(-82.15 -169.44)"/><path class="cls-1" d="M1351.72,827.77a463.12,463.12,0,0,1,135.41-94.39c17-7.8,35.17-15.1,54-16.34,17.06-1.12,33.67,3.5,46.16,15.5,11,10.59,17.85,24.92,20.58,39.87,6.37,35-12.61,70.17-35,95.62-47.53,54.12-119.22,78.86-189.14,86-40,4.11-80,2.91-120,1.22-36.87-1.56-75.42-1.87-109.44,14.48-51.31,24.66-78.66,88.26-65.39,142.89a116.28,116.28,0,0,0,7,20.1c3.15,7,13.5.94,10.36-6.06-23.53-52.51,1.88-121.17,53.45-146.28,34.48-16.8,74.7-14.45,111.93-12.79,40.83,1.83,81.81,2.36,122.44-2.73,71-8.89,143.28-35.79,190.38-92,22.48-26.82,40.28-61.84,35.82-97.82-3.9-31.49-24.82-61.66-57.13-68.51-18.84-4-38.33-.38-56.27,5.81-17.74,6.12-34.86,14.45-51.38,23.28a475.59,475.59,0,0,0-92.28,64.6q-10.3,9.21-20,19c-5.46,5.48,3,14,8.48,8.49Z" transform="translate(-82.15 -169.44)"/><path class="cls-1" d="M550.87,256.74c14.87-25.18-14.88,79-14.88,79" transform="translate(-82.15 -169.44)"/></svg>