<svg width="226" height="177" viewBox="0 0 226 177" fill="none" xmlns="http://www.w3.org/2000/svg">
<g clip-path="url(#clip0)">
<path d="M4.06199 36.4691L4.59629 40.3893C4.59629 40.805 4.41819 41.1614 4.00262 41.4584C3.58706 41.7554 3.23086 41.9336 2.93402 41.993C2.34036 42.0524 1.80606 41.6366 1.33112 40.805C0.856187 39.9141 0.61872 39.0826 0.559353 38.3104C0.44062 35.2218 1.39049 32.4896 3.46832 30.0544C5.54616 27.6191 8.21766 25.6591 11.4828 24.1742C11.4235 22.7487 11.6609 21.3826 12.2546 20.0165C12.7889 18.6503 13.7388 17.9376 15.0448 17.7594C15.5791 17.7 15.876 18.4128 15.9353 19.9571L16.0541 22.5705C17.4195 22.2141 18.3694 22.0359 19.0224 21.9171C24.6029 21.2044 29.1148 22.2141 32.4987 24.8869C35.8826 27.5597 37.6636 31.2423 37.8417 35.9346C37.9604 39.2014 37.4855 42.1118 36.4169 44.7846C35.3483 47.4574 33.8047 49.5956 31.8456 51.3181C27.9274 54.7631 23.1781 56.842 17.5382 57.5547L16.2322 57.7329C16.1728 58.9802 15.9947 59.5742 15.8166 59.6336C13.8575 59.8712 12.4921 59.8118 11.839 59.3366C11.5422 59.099 11.3641 58.6238 11.2454 57.9111C7.4459 57.3765 5.54616 56.4262 5.48679 55.1789C5.48679 54.7631 5.60553 54.4067 5.90236 54.1691C6.19919 53.9316 6.49603 53.7534 6.85223 53.694C7.20843 53.6346 8.63323 53.9909 11.1266 54.6443C11.0673 43.7154 11.1266 34.2715 11.4235 26.3718C9.16753 27.441 7.32716 28.8665 6.02109 30.6483C4.59629 32.4302 3.94326 34.3309 4.06199 36.4691ZM17.3601 24.6493C16.7665 24.7087 16.3509 24.8275 16.0541 24.8869C16.1728 32.1926 16.2322 38.3104 16.1728 43.2997C16.2322 49.7738 16.2322 53.8722 16.2322 55.5352C17.0633 55.5352 17.9538 55.4758 18.9037 55.3571C22.8813 54.8225 26.3245 52.9218 29.1148 49.655C31.905 46.3289 33.2704 42.5275 33.0923 38.251C32.9142 33.9745 31.3707 30.4701 28.4024 27.7973C25.434 25.1245 21.8126 24.0554 17.3601 24.6493Z" fill="#F0F0F0"/>
<path d="M49.0026 53.5752C46.628 53.8721 44.7282 53.2188 43.3034 51.6151C41.8192 50.0114 41.0475 48.1107 40.9881 45.8537C40.81 41.3396 41.6411 37.7758 43.4815 35.2218C45.3219 32.6678 47.7559 31.1829 50.843 30.7671C52.2678 30.5889 53.4551 30.8265 54.405 31.4799C55.3549 32.1332 55.8892 33.143 55.9485 34.4497C56.0673 36.9443 55.058 39.1419 53.0396 41.102C50.9617 43.0621 48.409 44.25 45.3813 44.7252C45.6187 46.3289 46.2124 47.6356 47.2216 48.7047C48.2309 49.7738 49.3588 50.249 50.6055 50.0708C51.8522 49.8926 52.9802 49.4768 53.9894 48.7641C54.9987 48.0513 55.8892 47.101 56.6609 45.9131C58.3232 43.4185 59.748 40.6268 60.876 37.5383C61.1728 36.7661 61.4103 36.1721 61.5884 35.8158C61.7665 35.4594 61.9446 35.2812 62.182 35.2218C62.4195 35.2218 62.5382 35.3406 62.5382 35.697C62.5976 37.7758 61.4696 41.0426 59.095 45.5567C56.3641 50.3678 53.0396 53.0406 49.0026 53.5752ZM45.2032 43.2997C47.6372 42.5869 49.4776 41.5178 50.5462 40.2111C51.6741 38.9044 52.1491 37.3007 52.0897 35.4594C52.0303 33.6181 51.3773 32.7272 50.1306 32.9054C48.6464 33.0836 47.4591 34.2715 46.5092 36.4097C45.6187 38.4886 45.2032 40.805 45.2032 43.2997Z" fill="#F0F0F0"/>
<path d="M64.3786 51.6151C63.4287 51.7339 62.5976 51.7339 61.8258 51.6151C61.0541 51.4963 60.5791 51.3181 60.401 51.1399C59.9855 50.7242 59.6293 48.1107 59.4512 43.4779C59.2731 38.845 59.5105 32.3708 60.2229 24.2336C60.8166 17.5218 62.7757 13.9581 65.9815 13.5423C66.7533 13.4235 67.2876 13.7799 67.6438 14.552C68 15.3242 68.2374 16.0963 68.2374 16.8091C68.4749 22.2141 67.0501 28.4507 64.0224 35.5782C64.0224 39.0232 64.0818 42.0524 64.2005 44.6064C64.3192 47.1604 64.6161 48.4077 65.0316 48.3483C65.744 48.2295 66.6939 47.2198 67.8812 45.3191C69.0686 43.4185 70.2559 41.0426 71.3839 38.1916C72.5118 35.3406 73.2242 33.8557 73.4617 33.8557C73.7585 33.7963 73.8773 33.9745 73.8773 34.3309C73.9366 35.5188 73.4023 37.4195 72.2744 40.0923C69.306 47.4574 66.6345 51.3181 64.3786 51.6151ZM66.6939 17.5218C66.6345 16.2151 66.4564 15.5618 66.1002 15.5618C64.8535 15.7399 64.1411 21.0262 63.963 31.4205C65.9221 25.4809 66.8126 20.848 66.6939 17.5218Z" fill="#F0F0F0"/>
<path d="M84.5039 38.4886C81.4762 45.9131 78.8047 49.7738 76.5488 50.0114C74.2335 50.3084 72.9274 50.1896 72.4525 49.7144C72.0369 49.2393 71.7401 47.4574 71.6213 44.4282C71.5026 41.399 71.6213 36.9443 71.9775 31.1829C69.8403 31.0641 68.7124 30.3514 68.5343 29.0446C68.5343 28.3913 68.9498 27.9755 69.8403 27.8567C70.7308 27.7379 71.5026 27.7973 72.215 28.0349C72.4525 25.0057 72.8087 21.9171 73.1649 18.7691C73.2836 17.9376 73.6398 17.1654 74.2929 16.3933C74.9459 15.6212 75.5989 15.146 76.1926 15.0866C76.7269 15.0272 77.0237 15.8587 77.1425 17.5218C77.2018 18.294 77.0237 21.9765 76.7269 28.5695C77.8549 28.2131 79.1016 27.6191 80.4076 26.847C81.7731 26.0748 82.5448 25.6591 82.7823 25.5997C83.5541 25.4809 83.9103 25.6591 83.9696 26.1342C84.029 26.55 83.2572 27.2034 81.7137 28.1537C80.1702 29.104 78.4485 29.8762 76.6082 30.4701C76.3707 36.5879 76.3113 41.2208 76.4301 44.3688C76.4894 46.0319 76.7863 46.804 77.2612 46.7446C78.033 46.6259 78.9828 45.6161 80.1702 43.7154C81.3575 41.8742 82.5448 39.4983 83.6728 36.5879C84.8008 33.7369 85.5132 32.252 85.7506 32.1926C86.0475 32.1332 86.1662 32.3114 86.1662 32.6678C86.1068 33.9151 85.5725 35.8158 84.5039 38.4886Z" fill="#F0F0F0"/>
<path d="M101.186 46.9228C99.5237 47.1604 98.277 46.9822 97.4459 46.3882C97.1491 46.1507 96.971 45.4379 96.9116 44.25C96.8522 43.0621 96.8522 41.4584 96.8522 39.4389C95.843 42.2899 94.8931 44.4282 93.8839 45.8537C92.8747 47.2792 91.5092 48.1107 89.8469 48.3483C88.1847 48.5859 86.6411 47.9919 85.3351 46.5664C84.029 45.1409 83.2572 42.8245 83.1385 39.4389C83.0198 36.1127 83.8509 33.0242 85.6319 30.1731C87.4129 27.3815 89.9063 25.7185 92.9934 25.3621C94.3588 25.1839 95.9024 25.8966 97.624 27.3815C97.9208 26.9064 98.5145 26.253 99.3456 25.4809C100.177 24.7087 100.889 24.2929 101.483 24.2336C102.077 24.1742 102.433 24.8869 102.492 26.4906C102.492 26.9064 102.433 27.7379 102.255 28.9852C102.076 30.2325 101.839 31.1235 101.602 31.7174C101.245 32.7272 101.186 36.1127 101.483 41.9335C101.542 43.0621 101.661 43.5966 101.958 43.5966C102.67 43.4778 103.62 42.4681 104.807 40.5674C105.995 38.6668 107.182 36.2909 108.31 33.4399C109.438 30.5889 110.15 29.104 110.388 29.104C110.685 29.0446 110.803 29.2228 110.803 29.5792C110.863 30.7671 110.328 32.6678 109.201 35.3406C106.113 42.7651 103.442 46.6258 101.186 46.9228ZM92.6372 27.9755C91.4498 28.1537 90.2625 29.1634 89.0158 31.0641C87.7691 32.9648 87.1754 35.0436 87.2942 37.4195C87.4129 39.7359 87.8285 41.6366 88.6002 43.0027C89.372 44.4282 90.3219 45.0221 91.4499 44.9033C92.8153 44.7252 94.715 41.0426 97.1491 33.8557C97.1491 33.4993 97.2084 32.9648 97.2084 32.1332C97.2084 31.3017 97.2678 30.7077 97.2678 30.2919C96.8522 29.698 96.1992 29.104 95.19 28.6289C94.2401 28.0349 93.3496 27.8567 92.6372 27.9755Z" fill="#F0F0F0"/>
<path d="M132.175 46.9822C128.673 47.398 126.239 46.2101 124.873 43.4185C123.923 41.5178 123.092 39.0232 122.499 35.9346C121.311 37.5383 120.48 38.6074 120.124 39.1419C119.708 39.7359 119.352 40.0329 118.996 40.0923C118.521 40.1517 118.224 39.9735 118.224 39.5577C118.224 39.3201 118.343 39.0232 118.58 38.7856C120.005 37.1225 121.193 35.6376 122.202 34.3309C121.786 32.0144 121.489 29.5198 121.371 26.847C121.252 24.1742 121.43 21.6201 121.786 19.1849C122.202 16.7497 122.974 14.6708 124.102 12.8889C125.23 11.107 126.654 10.1567 128.435 9.91912C130.573 9.62215 131.701 11.3446 131.879 14.9084C132.057 19.5413 130.394 24.5899 126.773 30.0544C127.248 33.7369 128.079 37.1819 129.385 40.3299C129.92 41.5772 130.454 42.5275 131.047 43.1215C131.641 43.7154 132.472 43.8936 133.482 43.7748C134.491 43.656 135.619 42.8245 136.865 41.2208C138.112 39.6765 139.181 37.7164 140.19 35.3406C141.199 32.9648 142.03 30.1732 142.624 26.9658C143.277 23.7584 143.515 20.4322 143.336 16.9872C143.218 13.6017 142.861 11.2258 142.268 9.85973C141.734 8.55302 140.784 7.3651 139.537 6.41476C137.875 5.28624 137.044 4.09832 136.984 2.79161C136.984 2.19765 137.222 1.60369 137.697 1.00973C138.231 0.475165 138.706 0.178185 139.299 0.0593927C140.665 -0.118795 141.852 0.178185 142.861 0.950332C143.871 1.72248 144.583 2.79161 145.058 4.21711C145.949 6.71174 146.423 9.56275 146.542 12.6513C146.78 18.5315 146.186 24.0554 144.821 29.3416C143.396 34.6279 141.555 38.7856 139.24 41.8742C136.984 44.9627 134.61 46.6852 132.175 46.9822ZM129.504 15.9775C129.385 13.7799 129.088 12.7107 128.613 12.7701C128.257 12.8295 127.901 13.3641 127.545 14.4332C127.189 15.5023 126.832 16.9278 126.595 18.7691C126.358 20.6104 126.239 22.3923 126.298 24.0554C126.358 25.7778 126.417 26.9658 126.536 27.6785C128.673 23.5208 129.682 19.6601 129.504 15.9775Z" fill="#F0F0F0"/>
<path d="M153.547 43.2996C151.885 43.5372 150.639 43.359 149.807 42.7651C149.511 42.5275 149.332 41.5178 149.214 39.6765C149.154 37.8946 149.154 34.8654 149.273 30.6483C149.392 26.4312 149.511 24.1741 149.748 23.8178C149.926 23.4614 150.579 22.7486 151.648 21.6795C152.716 20.6104 153.547 20.0758 154.141 19.957C154.735 19.8976 155.091 20.6104 155.15 22.2141C155.15 22.6298 155.091 23.4614 154.913 24.7087C154.735 25.956 154.497 26.847 154.26 27.4409C153.785 28.8664 153.666 32.4896 153.904 38.3104C153.963 39.4389 154.082 39.9735 154.379 39.9735C155.091 39.8547 156.041 38.845 157.228 36.9443C158.416 35.0436 159.603 32.6678 160.731 29.8168C161.859 26.9658 162.571 25.4809 162.809 25.4809C163.106 25.4215 163.224 25.5996 163.224 25.956C163.284 27.1439 162.749 29.0446 161.621 31.7174C158.475 39.2013 155.803 43.0027 153.547 43.2996ZM150.401 12.7701C150.342 11.998 150.757 11.3446 151.529 10.6913C152.301 10.0379 153.013 9.68152 153.666 9.62213C154.794 9.50334 155.388 10.0379 155.447 11.3446C155.507 12.6513 155.21 13.7798 154.557 14.7896C153.904 15.7993 153.013 16.3933 151.766 16.5715C150.995 16.6309 150.52 15.3835 150.401 12.7701Z" fill="#F0F0F0"/>
<path d="M171.298 19.1255C173.257 18.8879 174.86 19.3631 176.166 20.6104C177.472 21.8577 178.244 23.699 178.363 26.1936C180.084 25.4809 181.569 24.7087 182.875 23.8178C184.181 22.9268 184.834 22.5111 184.953 22.5111C185.19 22.4517 185.368 22.6893 185.368 23.105C185.368 23.5208 184.834 24.2336 183.646 25.2433C182.459 26.253 180.737 27.3815 178.363 28.5695C178.007 32.3114 176.641 35.4 174.207 37.7164C171.773 40.0329 169.28 41.399 166.786 41.696C164.293 41.9929 162.571 41.2802 161.621 39.5577C160.731 37.8352 160.137 34.9248 160.018 30.9453C159.84 26.9658 160.018 23.105 160.434 19.4819C160.85 15.8587 161.503 12.8889 162.334 10.7507C163.165 8.55302 164.055 6.88993 165.005 5.64262C165.955 4.3953 166.846 3.74195 167.736 3.62315C168.152 3.56376 168.567 4.03893 168.983 4.98926C169.398 5.9396 169.636 7.12752 169.695 8.61242C169.814 11.8198 169.398 15.6211 168.389 20.0758C169.042 19.5413 170.051 19.2443 171.298 19.1255ZM168.092 9.85973C168.033 8.13725 167.736 7.24631 167.261 7.3057C166.905 7.3651 166.489 8.31544 166.015 10.2161C165.54 12.1168 165.183 14.6114 164.887 17.7594C164.59 20.9074 164.471 23.996 164.59 27.0252C167.083 18.9473 168.27 13.1859 168.092 9.85973ZM174.563 29.995C174.207 30.0544 173.554 30.1732 172.426 30.3513C171.358 30.4701 170.17 30.2919 168.864 29.698C167.558 29.1634 166.668 28.2131 166.133 27.0252C165.777 28.0943 165.302 29.1634 164.827 30.2326C165.065 33.3805 165.361 35.6376 165.836 36.9443C166.311 38.251 167.024 38.845 167.914 38.7262C169.398 38.548 170.823 37.7164 172.129 36.3503C173.554 34.8654 174.385 32.7866 174.563 29.995ZM170.348 21.5013C169.755 21.5607 169.28 21.7983 168.923 22.2141C168.567 22.6299 168.449 23.105 168.449 23.699C168.508 25.0057 169.102 25.956 170.289 26.6688C171.476 27.3815 172.901 27.6191 174.504 27.4409C174.385 25.7185 173.97 24.293 173.317 23.105C172.723 21.8577 171.714 21.3232 170.348 21.5013Z" fill="#F0F0F0"/>
<path d="M190.652 38.6074C188.277 38.9044 186.377 38.251 184.953 36.6473C183.468 35.0436 182.697 33.143 182.637 30.8859C182.459 26.3718 183.29 22.8081 185.131 20.254C186.971 17.7 189.405 16.2151 192.492 15.7993C193.917 15.6212 195.104 15.8587 196.054 16.5121C197.004 17.1654 197.538 18.1752 197.598 19.4819C197.716 21.9765 196.707 24.1742 194.689 26.1342C192.611 28.0943 190.058 29.2822 187.03 29.7574C187.268 31.3611 187.861 32.6678 188.871 33.7369C189.88 34.8061 191.008 35.2812 192.255 35.103C193.501 34.9248 194.629 34.5091 195.639 33.7963C196.648 33.0836 197.538 32.1332 198.31 30.9453C199.972 28.4507 201.397 25.6591 202.525 22.5705C202.822 21.7983 203.059 21.2044 203.237 20.848C203.416 20.4916 203.594 20.3134 203.831 20.254C204.069 20.254 204.187 20.3728 204.187 20.7292C204.247 22.8081 203.119 26.0748 200.744 30.5889C198.073 35.4 194.748 38.0728 190.652 38.6074ZM186.852 28.2725C189.286 27.5597 191.127 26.4906 192.195 25.1839C193.323 23.8772 193.798 22.2735 193.739 20.4322C193.679 18.591 193.026 17.7 191.78 17.8782C190.296 18.0564 189.108 19.2443 188.158 21.3826C187.327 23.5208 186.852 25.8373 186.852 28.2725Z" fill="#F0F0F0"/>
<path d="M60.1042 68.8993L60.3417 67.2362C60.1042 65.0386 58.5013 64.0883 55.5924 64.4446C53.9301 64.6822 52.4459 65.4544 51.2586 66.7611C50.0712 68.1272 49.4776 69.4339 49.5369 70.7406C49.5963 72.0473 50.19 73.1165 51.3773 73.948C52.5053 74.7795 53.9301 75.4923 55.533 76.0269C57.1359 76.6208 58.7388 77.2148 60.3417 77.9275C61.9446 78.6403 63.3694 79.5906 64.4974 80.8973C65.6847 82.1446 66.2784 83.6889 66.3377 85.4708C66.5158 89.1534 65.1504 92.2419 62.3008 94.7366C59.4512 97.2312 56.3048 98.7161 52.9209 99.1319C49.5369 99.5476 46.628 99.3101 44.3127 98.3597C41.9974 97.4094 40.81 95.6869 40.6913 93.1923C40.6319 91.8856 41.0475 90.5789 41.938 89.3909C42.8285 88.203 44.1346 87.4903 45.8562 87.2527C46.5092 87.1933 47.1623 87.2527 47.6966 87.6091C48.2309 87.906 48.5871 88.3812 48.7652 88.9752C48.7652 89.5691 48.409 89.9849 47.6966 90.0443C46.2718 90.2225 45.5594 90.9352 45.6187 92.1232C45.7375 93.4893 46.4499 94.6772 47.7559 95.6275C49.062 96.5779 50.9024 96.9342 53.2177 96.6372C55.533 96.3403 57.4921 95.2711 59.095 93.4893C60.6979 91.7074 61.4697 89.6879 61.3509 87.4309C61.2916 85.946 60.6385 84.6393 59.5106 83.5701C58.3232 82.501 56.8984 81.6695 55.2955 81.0161C53.6333 80.3628 52.0303 79.7094 50.3681 79.0561C48.7058 78.4027 47.281 77.5118 46.0937 76.3832C44.9063 75.2547 44.2533 73.948 44.1939 72.3443C44.0752 69.5527 45.2032 67.1769 47.5185 65.2168C49.8931 63.2567 52.5647 62.0688 55.6517 61.653C57.7296 61.4154 59.5699 61.5936 61.2916 62.1876C63.0132 62.7816 63.9037 63.9695 64.0224 65.6326C64.0818 66.6423 63.8443 67.4738 63.3694 68.246C62.8945 68.9587 62.2414 69.3745 61.3509 69.4933C60.6385 69.7903 60.1636 69.4933 60.1042 68.8993Z" fill="#F0F0F0"/>
<path d="M84.2071 84.4017C81.1794 91.8262 78.5079 95.6869 76.252 95.9245C73.9367 96.2215 72.6306 96.1027 72.1557 95.6275C71.7401 95.1524 71.4433 93.3705 71.3245 90.3413C71.2058 87.3121 71.3245 82.8574 71.6807 77.096C69.5435 76.9772 68.4156 76.2644 68.2375 74.9577C68.2375 74.3044 68.653 73.8886 69.5435 73.7698C70.434 73.651 71.2058 73.7104 71.9182 73.948C72.1557 70.9188 72.5119 67.8302 72.8681 64.6822C72.9868 63.8507 73.343 63.0785 73.9961 62.3064C74.6491 61.5342 75.3021 61.0591 75.8958 60.9997C76.4301 60.9403 76.7269 61.7718 76.8457 63.4349C76.905 64.2071 76.7269 67.8896 76.4301 74.4826C77.5581 74.1262 78.8048 73.5322 80.1108 72.7601C81.4763 71.9879 82.248 71.5722 82.4855 71.5128C83.2573 71.394 83.6135 71.5722 83.6728 72.0473C83.7322 72.4631 82.9604 73.1165 81.4169 74.0668C79.8734 75.0171 78.1517 75.7893 76.3113 76.3832C76.0739 82.501 76.0145 87.1339 76.1333 90.2819C76.1926 91.945 76.4895 92.7171 76.9644 92.6577C77.7362 92.539 78.686 91.5292 79.8734 89.6285C81.0607 87.7873 82.248 85.4114 83.376 82.501C84.504 79.65 85.2164 78.1651 85.4538 78.1057C85.7507 78.0463 85.8694 78.2245 85.8694 78.5809C85.8694 79.7688 85.3351 81.7289 84.2071 84.4017Z" fill="#F0F0F0"/>
<path d="M82.9604 89.3316L83.0792 82.3228C82.9011 77.8681 83.0198 75.4329 83.4354 74.9577C83.8509 74.4826 84.5633 73.7698 85.5726 72.8195C86.5818 71.8691 87.3536 71.394 87.8285 71.3346C88.3034 71.2752 88.6003 71.3346 88.7784 71.4534C88.8971 71.6316 89.0158 71.9285 89.0158 72.4037C89.0752 74.1856 88.7784 76.0269 88.066 77.9869C87.591 81.9071 87.4129 85.055 87.5317 87.5497C87.6504 89.9849 88.066 91.1728 88.8971 91.054C89.847 90.9352 90.9749 89.9255 92.2216 88.1436C93.4684 86.3024 94.6557 83.6889 95.843 80.244C96.0211 76.0269 96.2586 73.7698 96.4961 73.4134C96.7335 73.0571 97.2678 72.4037 98.1583 71.394C99.0488 70.3842 99.8206 69.8497 100.414 69.7903C101.008 69.7309 101.364 70.4436 101.423 72.0473C101.423 72.4631 101.364 73.2946 101.186 74.542C101.008 75.7893 100.77 76.6802 100.533 77.2742C100.117 78.5215 100.058 82.1446 100.296 88.1436C100.355 89.2722 100.474 89.8067 100.77 89.8067C101.483 89.6879 102.433 88.6782 103.62 86.7775C104.807 84.8769 105.995 82.501 107.123 79.65C108.251 76.799 108.963 75.3141 109.201 75.3141C109.497 75.2547 109.616 75.4329 109.616 75.7893C109.675 76.9772 109.141 78.8779 108.013 81.5507C104.986 88.9752 102.314 92.7765 100.058 93.0735C98.3958 93.3111 97.1491 93.1329 96.318 92.5389C96.0211 92.3014 95.843 91.4104 95.7837 89.9255C95.7243 88.4406 95.7243 86.7775 95.7837 84.9363C94.537 87.9061 93.2902 90.2819 92.0435 91.8856C90.7375 93.5487 89.3127 94.4396 87.6504 94.6772C85.9881 94.9148 84.8602 94.6178 84.2665 93.7862C83.376 92.8359 83.0198 91.4104 82.9604 89.3316Z" fill="#F0F0F0"/>
<path d="M124.161 89.8067C122.736 89.9849 121.608 89.8067 120.777 89.2722C120.421 88.9752 120.243 88.1436 120.183 86.7181C120.124 85.2926 120.124 83.4513 120.124 81.1349C119.115 84.2829 118.046 86.6587 116.918 88.3812C115.79 90.0443 114.365 91.054 112.584 91.2322C110.803 91.4698 109.26 90.8758 107.954 89.5097C106.648 88.1436 105.935 85.7678 105.817 82.3822C105.698 78.9966 106.529 75.9081 108.31 73.1164C110.091 70.3248 112.584 68.6617 115.672 68.3054C117.156 68.1272 118.759 68.4836 120.48 69.4339C120.836 61.2373 121.252 56.6044 121.727 55.4758C121.964 55.0007 122.558 54.2285 123.449 53.2782C124.339 52.2685 125.111 51.7339 125.764 51.6745C126.417 51.6151 126.773 52.506 126.832 54.4661C126.951 56.7826 126.773 58.7426 126.417 60.4651C125.467 64.9198 124.873 67.7114 124.636 68.8993C124.22 73.4728 124.161 78.7591 124.398 84.8768C124.458 86.0054 124.577 86.5399 124.873 86.5399C125.645 86.4211 126.595 85.4114 127.782 83.5107C128.97 81.6695 130.157 79.2936 131.285 76.3832C132.413 73.5322 133.125 72.0473 133.363 71.9879C133.66 71.9285 133.778 72.1067 133.778 72.4631C133.838 73.651 133.303 75.5517 132.175 78.2245C129.148 85.7084 126.476 89.5097 124.161 89.8067ZM115.375 70.6218C114.247 70.7406 113.119 71.8097 112.11 73.7104C111.041 75.6705 110.566 77.8087 110.685 80.1252C110.803 82.501 111.16 84.3423 111.813 85.7678C112.466 87.1933 113.297 87.8466 114.187 87.7279C116.087 87.4903 118.106 83.4513 120.243 75.6705C120.361 73.354 120.421 71.9879 120.361 71.5722C119.115 70.6812 117.453 70.3842 115.375 70.6218Z" fill="#F0F0F0"/>
<path d="M135.203 88.4406C133.541 88.6782 132.294 88.5 131.463 87.906C131.166 87.6685 130.988 86.6587 130.869 84.8175C130.81 83.0356 130.81 80.0064 130.929 75.7893C131.047 71.5722 131.166 69.3151 131.344 68.9587C131.522 68.6024 132.175 67.8896 133.244 66.8205C134.313 65.7514 135.144 65.2168 135.737 65.098C136.331 65.0386 136.687 65.7514 136.747 67.355C136.747 67.7708 136.687 68.6024 136.509 69.8497C136.331 71.097 136.094 71.9879 135.856 72.5819C135.381 74.0074 135.263 77.6305 135.5 83.4513C135.559 84.5799 135.678 85.1144 135.975 85.1144C136.687 84.9956 137.637 83.9859 138.825 82.0852C140.012 80.1846 141.199 77.8087 142.327 74.9577C143.455 72.1067 144.168 70.6218 144.405 70.6218C144.702 70.5624 144.821 70.7406 144.821 71.097C144.88 72.2849 144.346 74.1856 143.218 76.8584C140.131 84.2829 137.459 88.1436 135.203 88.4406ZM132.116 57.8517C132.057 57.0795 132.472 56.4262 133.244 55.7728C134.016 55.1195 134.728 54.7631 135.381 54.7037C136.509 54.5849 137.103 55.1195 137.162 56.4262C137.222 57.7329 136.925 58.8614 136.272 59.8712C135.619 60.8809 134.728 61.4748 133.482 61.653C132.65 61.7124 132.175 60.4651 132.116 57.8517Z" fill="#F0F0F0"/>
<path d="M161.206 71.2158C162.868 70.4436 163.996 69.8497 164.649 69.3745C165.302 68.8993 165.777 68.543 166.074 68.3054L166.786 67.7708C166.964 67.5926 167.142 67.5332 167.261 67.5332C167.617 67.4738 167.796 67.652 167.796 68.0084C167.796 68.3648 167.202 69.1369 165.896 70.2061C164.649 71.3346 163.046 72.3443 161.146 73.354C160.968 76.8584 160.018 79.8282 158.178 82.2634C156.338 84.6987 153.607 86.1242 150.045 86.5399C147.433 86.8963 145.414 86.1242 143.93 84.2235C142.446 82.3228 141.674 80.0064 141.555 77.2742C141.437 74.4826 142.149 71.8097 143.693 69.1369C145.236 66.4641 147.314 64.9792 149.926 64.6228C151.054 63.6131 152.42 63.0191 154.082 62.841C155.685 62.6628 157.228 63.3161 158.712 64.801C160.256 66.3453 161.087 68.4242 161.206 71.2158ZM157.228 74.8983L154.972 75.3141C153.013 75.5517 151.351 75.1953 149.985 74.245C148.62 73.2946 147.848 72.1067 147.789 70.7406C147.73 69.3745 147.908 68.1272 148.323 67.1175C146.602 68.7806 145.77 71.691 145.949 75.8487C146.008 77.8681 146.542 79.7094 147.433 81.3725C148.323 83.095 149.689 83.8077 151.529 83.5701C153.31 83.3326 154.735 82.3822 155.685 80.7785C156.635 79.0561 157.169 77.096 157.228 74.8983ZM152.894 65.0386C152.241 65.098 151.707 65.5138 151.351 66.1671C150.995 66.8205 150.817 67.4738 150.876 68.1866C150.935 69.7309 151.529 70.9188 152.657 71.7504C153.785 72.5819 155.032 72.8789 156.456 72.7007L157.228 72.5819C157.05 70.5624 156.635 68.7212 155.982 67.1769C155.269 65.5732 154.26 64.8604 152.894 65.0386Z" fill="#F0F0F0"/>
<path d="M173.554 64.0289L173.613 63.0785C173.554 62.3064 173.139 62.0094 172.248 62.1282C171.358 62.247 170.586 62.9004 169.814 64.0883C169.042 65.2762 168.686 66.2265 168.745 66.9393C168.745 67.652 168.864 68.1866 168.924 68.6024C169.042 69.0181 169.161 69.3151 169.22 69.6121C169.339 69.8497 169.517 70.1467 169.814 70.503C170.111 70.8594 170.289 71.097 170.408 71.2158L171.12 71.9879C171.417 72.3443 171.654 72.5819 171.773 72.7007C173.91 70.6218 176.404 68.3054 179.372 65.692C179.55 65.5732 179.728 65.4544 179.906 65.4544C180.322 65.395 180.559 65.6326 180.559 66.0483C180.559 66.5235 180.381 66.8799 180.025 67.1769C177.413 69.1963 174.92 71.394 172.604 73.7104C173.554 74.8983 174.088 76.3238 174.148 77.9275C174.207 79.5312 173.673 80.9567 172.486 82.204C171.298 83.5108 169.755 84.2235 167.914 84.4611C166.015 84.6987 165.065 83.9265 164.946 82.1447C164.887 80.8379 166.193 78.6997 168.864 75.6705C168.627 75.4329 168.27 75.0765 167.677 74.6014C167.083 74.1262 166.668 73.7104 166.371 73.4134C166.074 73.1165 165.718 72.7007 165.361 72.2255C164.649 71.2752 164.293 70.2061 164.234 68.9587C164.115 66.5235 164.827 64.4446 166.371 62.7222C167.914 60.9997 169.577 60.0493 171.358 59.8118C172.485 59.693 173.376 59.8712 174.029 60.4057C174.682 60.9403 175.038 61.4748 175.038 62.1282C175.098 63.5537 174.801 64.2665 174.088 64.3853C173.792 64.504 173.554 64.3853 173.554 64.0289ZM169.992 76.8584C168.389 78.7591 167.617 80.1846 167.617 81.1943C167.677 82.204 168.211 82.6792 169.28 82.501C169.933 82.4416 170.408 82.0853 170.823 81.5507C171.714 80.1846 171.417 78.6403 169.992 76.8584Z" fill="#F0F0F0"/>
<path d="M161.681 116.713C161.325 116.416 160.968 116.06 160.612 115.763C158.119 114.872 155.566 114.04 153.191 115.05C153.191 115.109 153.251 115.109 153.251 115.169C150.52 120.336 150.876 122.831 154.616 125.088C154.972 124.672 155.388 124.316 155.982 123.722C156.338 130.671 156.635 137.205 156.991 143.501C156.635 143.976 156.516 144.213 156.338 144.332C151.885 147.302 147.433 150.212 142.98 153.123C142.327 153.539 141.496 153.717 140.724 153.954C139.834 154.251 138.825 154.251 138.112 154.727C135.084 156.627 132.116 158.647 128.851 160.844C129.801 162.092 130.751 163.339 131.76 164.705C134.61 163.042 137.281 161.676 139.656 160.013C141.021 159.062 141.971 157.578 143.099 156.33C143.455 155.974 143.93 155.677 144.405 155.38C147.789 153.242 151.173 151.103 154.557 148.906C156.338 147.777 158.059 146.53 159.722 145.342C159.425 138.452 159.128 131.74 158.831 125.266C163.284 123.009 163.521 122.118 161.681 116.713Z" fill="#F0F0F0" stroke="#F0F0F0" stroke-miterlimit="10"/>
<path d="M155.922 143.026C153.726 144.57 152.004 145.758 150.223 146.946C148.026 148.431 145.77 149.915 143.515 151.341C142.861 151.757 142.03 152.41 141.318 152.291C139.003 151.935 137.697 153.42 136.153 154.311C133.185 156.093 130.335 158.112 127.248 160.191C128.317 162.27 129.445 164.408 130.513 166.546C134.669 164.943 141.615 159.656 144.702 156.924C147.492 154.37 150.995 152.529 154.972 149.797C154.675 151.638 154.675 152.648 154.438 153.539C152.479 160.31 148.679 165.834 142.921 170.051C137.518 174.03 131.522 176.525 124.398 176.584C111.1 176.703 97.7427 168.447 92.6372 156.449C89.3127 148.728 89.0752 140.828 91.7467 133.225C94.062 126.632 98.2177 121.287 103.917 117.069C104.154 116.891 104.332 116.772 104.57 116.594C123.33 104.953 145.533 114.812 153.369 131.978C154.794 135.423 155.032 139.165 155.922 143.026ZM98.1583 159.241C98.752 159.538 99.3456 159.894 100.296 160.429C101.245 159.062 102.077 157.815 102.908 156.627C106.054 156.568 107.42 154.311 109.379 152.588C108.963 151.163 108.607 149.915 108.191 148.668C104.689 147.599 102.017 148.787 99.4644 150.331C96.6741 149.618 96.1992 149.737 94.9525 151.519C94.2401 151.163 93.5871 150.866 92.3997 150.272C93.7058 154.667 93.8839 158.884 98.3958 162.21C98.277 160.726 98.2177 159.953 98.1583 159.241ZM146.423 138.571C147.433 140.234 148.858 139.759 150.401 139.402C151.529 135.898 149.748 132.869 147.314 129.424C146.127 130.968 143.93 130.968 143.633 133.047C140.368 132.512 138.706 134.651 136.509 136.195C136.747 137.561 136.925 138.868 137.162 140.293C140.131 140.947 142.683 140.59 145.177 140.353C145.711 139.64 146.067 139.105 146.423 138.571ZM112.822 138.155C108.191 146.767 114.128 153.717 120.243 155.261C126.179 156.746 130.632 154.667 133.363 149.084C134.847 146.055 135.381 142.55 133.244 139.046C130.81 135.066 127.189 132.928 122.617 132.631C117.69 132.394 114.662 135.007 112.822 138.155Z" fill="#F0F0F0" stroke="#F0F0F0" stroke-miterlimit="10"/>
<path d="M179.194 67.8302C183.706 64.4446 188.455 61.2373 193.264 58.3268C200.21 54.0503 208.699 48.5265 217.07 48.1107C227.756 47.5762 222.532 62.247 220.454 67.7114C217.07 76.6208 213.152 86.7181 205.375 92.6577C199.201 97.4094 191.423 99.8446 183.765 100.795C173.554 102.102 150.639 101.745 156.753 118.02C157.169 119.089 158.891 118.614 158.475 117.545C152.598 101.864 177.947 103.765 187.387 102.042C194.867 100.676 202.347 97.7658 208.165 92.7171C215.23 86.5399 218.97 76.7396 222.175 68.1866C224.313 62.6034 229.418 48.2889 219.682 46.4477C216.179 45.7943 212.321 46.9822 209.055 48.2295C204.603 49.8926 200.329 52.0903 196.173 54.4661C189.999 58.0299 183.943 62.0094 178.244 66.2859C177.413 66.9987 178.303 68.543 179.194 67.8302Z" fill="#F0F0F0"/>
</g>
<defs>
<clipPath id="clip0">
<rect width="225" height="177" fill="white" transform="translate(0.5)"/>
</clipPath>
</defs>
</svg>
