<?xml version="1.0" encoding="utf-8"?>
<!-- Generator: Adobe Illustrator 24.2.1, SVG Export Plug-In . SVG Version: 6.00 Build 0)  -->
<svg version="1.1" id="Lager_1" xmlns="http://www.w3.org/2000/svg" xmlns:xlink="http://www.w3.org/1999/xlink" x="0px" y="0px"
	 viewBox="0 0 1600 1600" style="enable-background:new 0 0 1600 1600;" xml:space="preserve">
<style type="text/css">
	.st0{fill:#FFFFFF;}
</style>
<rect width="1600" height="1600"/>
<g>
	<path class="st0" d="M364.5,698.6L374.9,810c0,11.6-6.1,20.9-18.3,27.8c-12.2,7-22.3,10.4-30.4,10.4c-16.3,0-30.5-13-42.6-39.1
		c-12.2-26.1-18.3-50.2-18.3-72.2c0-85.8,29.9-158.6,89.6-218.4c59.7-59.7,135.4-104.7,227.1-134.9c0-39.4,8.4-76.8,25.2-112.2
		c16.8-35.4,43.2-53.1,79.2-53.1c15.1,0,22.6,21.5,22.6,64.4v73.1c37.1-4.6,64.4-6.9,81.8-6.9c154.3,0,276.4,43.2,366.3,129.6
		c89.9,86.4,134.9,195.2,134.9,326.3c0,90.5-16.3,170.5-48.7,240.1c-32.5,69.6-76.6,124.7-132.3,165.3
		C999.6,1291.4,866.2,1332,710.8,1332h-36.6c-3.5,33.6-8.1,50.5-13.9,50.5c-54.5,0-91.1-7.6-109.6-22.6c-8.1-8.1-12.8-22-13.9-41.8
		c-103.3-29-154.9-60.9-154.9-95.7c0-11.6,4.1-20.6,12.2-27c8.1-6.4,17.1-9.6,27-9.6c9.8,0,48.4,13.9,115.7,41.8
		c10.4-303.9,23.8-565,40-783.1c-63.8,22.1-115.1,55.1-154,99.2C383.9,587.8,364.5,639.4,364.5,698.6z M743.8,416.7
		c-16.3,0-28.4,0.6-36.6,1.7c-4.7,203-10.4,373.6-17.4,511.6c-5.8,179.8-9.9,292.9-12.2,339.3c23.2,3.5,47.5,5.2,73.1,5.2
		c110.2,0,205.9-40.9,287.1-122.7c81.2-81.8,121.8-182.4,121.8-301.9c0-119.5-38.9-221.6-116.6-306.2
		C965.4,459.1,865.6,416.7,743.8,416.7z"/>
</g>
</svg>
